fd_2_states
version=1
nRows=27
nColumns=17
inDegrees=yes

# SIMM Motion File Header:
name fd_2_states
datacolumns 17
datarows 27
otherdata 1
range 0.489036 0.503071
endheader
time	/jointset/r_shoulder/r_shoulder_elev/value	/jointset/r_shoulder/r_shoulder_elev/speed	/jointset/r_elbow/r_elbow_flex/value	/jointset/r_elbow/r_elbow_flex/speed	/forceset/TRIlong/activation	/forceset/TRIlong/fiber_length	/forceset/TRIlat/activation	/forceset/TRIlat/fiber_length	/forceset/TRImed/activation	/forceset/TRImed/fiber_length	/forceset/BIClong/activation	/forceset/BIClong/fiber_length	/forceset/BICshort/activation	/forceset/BICshort/fiber_length	/forceset/BRA/activation	/forceset/BRA/fiber_length
      0.489036	      1.455462	     56.471657	    129.995162	    220.315175	      0.024333	      0.183627	      0.364264	      0.116106	      0.357356	      0.111193	      0.957777	      0.062378	      0.552984	      0.062183	      0.537000	      0.051513
      0.489404	      1.476180	     56.174076	    130.076135	    219.930096	      0.024312	      0.183673	      0.362763	      0.116138	      0.355898	      0.111224	      0.958571	      0.062309	      0.546531	      0.062139	      0.530852	      0.051487
      0.489772	      1.496789	     55.879163	    130.156963	    219.528829	      0.024290	      0.183705	      0.361280	      0.116169	      0.354457	      0.111255	      0.959350	      0.062241	      0.540202	      0.062095	      0.524819	      0.051460
      0.489884	      1.503084	     55.787734	    130.181706	    219.400889	      0.024284	      0.183718	      0.360829	      0.116178	      0.354018	      0.111264	      0.959585	      0.062221	      0.538286	      0.062082	      0.522993	      0.051452
      0.489999	      1.509484	     55.694702	    130.206888	    219.268904	      0.024277	      0.183730	      0.360371	      0.116188	      0.353574	      0.111274	      0.959824	      0.062199	      0.536347	      0.062068	      0.521144	      0.051444
      0.490002	      1.509667	     55.692030	    130.207611	    219.265088	      0.024525	      0.183730	      0.360433	      0.116188	      0.353637	      0.111274	      0.959765	      0.062199	      0.536292	      0.062068	      0.521091	      0.051444
      0.490006	      1.509851	     55.689359	    130.208333	    219.261270	      0.025124	      0.183731	      0.360636	      0.116189	      0.353844	      0.111274	      0.959615	      0.062198	      0.536236	      0.062067	      0.521038	      0.051443
      0.490022	      1.510769	     55.675984	    130.211947	    219.242137	      0.028095	      0.183731	      0.361647	      0.116190	      0.354876	      0.111276	      0.958865	      0.062195	      0.535959	      0.062065	      0.520774	      0.051442
      0.490105	      1.515354	     55.608305	    130.230010	    219.144759	      0.042472	      0.183732	      0.366655	      0.116197	      0.359986	      0.111282	      0.955129	      0.062180	      0.534576	      0.062056	      0.519455	      0.051436
      0.490359	      1.529449	     55.388174	    130.285625	    218.817576	      0.082550	      0.183726	      0.381631	      0.116213	      0.375259	      0.111298	      0.943774	      0.062135	      0.530350	      0.062026	      0.515424	      0.051418
      0.490816	      1.554712	     54.933540	    130.385665	    218.076423	      0.143176	      0.183699	      0.407034	      0.116235	      0.401138	      0.111320	      0.923891	      0.062057	      0.522869	      0.061972	      0.508286	      0.051385
      0.491398	      1.586461	     54.227722	    130.512132	    216.773218	      0.206092	      0.183659	      0.436703	      0.116256	      0.431321	      0.111340	      0.899678	      0.061964	      0.513617	      0.061904	      0.499452	      0.051343
      0.492160	      1.627330	     53.059133	    130.676344	    214.354011	      0.273346	      0.183611	      0.471859	      0.116276	      0.467036	      0.111360	      0.869611	      0.061850	      0.501902	      0.061816	      0.488259	      0.051288
      0.493146	      1.678741	     51.119696	    130.885686	    209.937504	      0.344015	      0.183562	      0.512284	      0.116296	      0.508046	      0.111380	      0.833195	      0.061715	      0.487371	      0.061704	      0.474363	      0.051218
      0.494416	      1.741735	     47.961245	    131.147610	    202.140174	      0.417300	      0.183514	      0.557580	      0.116317	      0.553934	      0.111401	      0.790051	      0.061558	      0.469646	      0.061562	      0.457395	      0.051130
      0.496041	      1.815753	     42.928489	    131.465924	    188.901130	      0.492094	      0.183473	      0.606941	      0.116340	      0.603874	      0.111425	      0.740196	      0.061377	      0.448446	      0.061385	      0.437072	      0.051020
      0.498110	      1.896720	     35.102367	    131.835275	    167.384551	      0.567035	      0.183445	      0.659184	      0.116367	      0.656666	      0.111455	      0.684123	      0.061176	      0.423629	      0.061173	      0.413245	      0.050888
      0.498807	      1.920170	     32.147761	    131.949110	    159.116016	      0.588564	      0.183441	      0.674657	      0.116376	      0.672290	      0.111465	      0.666838	      0.061114	      0.415761	      0.061105	      0.405683	      0.050847
      0.499291	      1.935200	     30.013926	    132.024599	    153.117410	      0.602595	      0.183438	      0.684845	      0.116382	      0.682575	      0.111471	      0.655281	      0.061073	      0.410441	      0.061059	      0.400567	      0.050819
      0.499842	      1.951061	     27.500523	    132.107091	    146.031957	      0.617781	      0.183437	      0.695961	      0.116389	      0.693795	      0.111479	      0.642508	      0.061028	      0.404506	      0.061008	      0.394857	      0.050789
      0.499945	      1.953868	     27.022155	    132.122059	    144.681607	      0.620525	      0.183436	      0.697980	      0.116390	      0.695833	      0.111481	      0.640169	      0.061020	      0.403412	      0.060999	      0.393806	      0.050783
      0.499996	      1.955228	     26.786355	    132.129355	    144.015813	      0.621863	      0.183436	      0.698965	      0.116391	      0.696827	      0.111481	      0.639027	      0.061016	      0.402878	      0.060994	      0.393291	      0.050780
      0.500028	      1.956083	     26.636691	    132.133957	    143.593176	      0.621429	      0.183436	      0.699586	      0.116391	      0.697454	      0.111482	      0.638305	      0.061014	      0.402539	      0.060991	      0.392966	      0.050779
      0.500060	      1.956933	     26.486765	    132.138546	    143.169754	      0.620740	      0.183436	      0.700206	      0.116392	      0.698079	      0.111482	      0.637585	      0.061011	      0.402202	      0.060989	      0.392641	      0.050777
      0.500220	      1.961112	     25.733293	    132.161287	    141.041087	      0.617316	      0.183436	      0.703280	      0.116394	      0.701182	      0.111485	      0.634003	      0.060999	      0.400520	      0.060974	      0.391023	      0.050768
      0.500941	      1.978431	     22.262856	    132.259513	    131.220803	      0.602270	      0.183440	      0.716647	      0.116402	      0.714669	      0.111495	      0.618272	      0.060945	      0.393078	      0.060912	      0.383858	      0.050731
      0.503071	      2.014486	     11.492867	    132.506691	    100.548135	      0.561251	      0.183479	      0.751920	      0.116428	      0.750245	      0.111523	      0.575456	      0.060806	      0.372346	      0.060745	      0.363881	      0.050634
